# xmcd
#
# Track frame offsets:
#	150
#	15570
#	28294
#	41902
#	55482
#	66535
#	88727
#	106818
#	120717
#	134578
#
# Disc length: 1997 seconds
#
# Revision: 1
# Processed by: cddbd v1.5.2PL0 Copyright (c) Steve Scherf et al.
# Submitted via: audiograbber 1.83.01
#
DISCID=9507cb0a
DTITLE=Merle Haggard - the best of Merle Haggard
DYEAR=2002
DGENRE=Country
TTITLE0=Okie From Muskogee
TTITLE1=If You Want To Be My Woman
TTITLE2=Games People Play
TTITLE3=Workin' Man's Blues
TTITLE4=Corrine Corrina
TTITLE5=The Bottle Let Me Down
TTITLE6=What Am I Going To Do
TTITLE7=Mama Tried
TTITLE8=That's The Way Love Goes
TTITLE9=San Antonio Rose
EXTD=CRG-191042 File under :Country copyright 2002 Mastertech Pty Ltd. made in 
EXTD=USA
EXTT0=
EXTT1=
EXTT2=
EXTT3=
EXTT4=
EXTT5=
EXTT6=
EXTT7=
EXTT8=
EXTT9=
PLAYORDER=
